<svg id="Layer_1" enable-background="new 0 0 256 256" height="512" viewBox="0 0 256 256" width="512" xmlns="http://www.w3.org/2000/svg"><g><path d="m116.969 142.497h-83.434c-13.553 0-24.539 10.987-24.539 24.539v19.862 10.934h19.964v22.931h91.286v-22.931h21.261v-10.934-19.862c.001-13.552-10.986-24.539-24.538-24.539z" fill="#4671c6"/><g fill="#f9cfcf"><path d="m8.995 197.832h19.965v22.93h-19.965z"/><path d="m120.247 197.832h21.261v22.93h-21.261z"/><path d="m50.714 121.149v23.311.003c0 13.539 10.975 24.514 24.514 24.514 13.532 0 24.514-10.967 24.514-24.516 0-4.716 0-18.437 0-23.311h-49.028z"/></g><path d="m75.252 125.272c-31.748 0-57.484-25.736-57.484-57.484v-24.077c0-7.98 6.469-14.449 14.449-14.449h100.519v38.526c0 31.747-25.737 57.484-57.484 57.484z" fill="#4671c6"/><path d="m124.211 71.674v-4.584c0-26.796-21.92-48.518-48.959-48.518-27.04 0-48.959 21.722-48.959 48.518v4.584c-8.501-.172-15.246 6.6-15.246 14.787 0 8.742 7.632 15.656 16.539 14.714 5.053 21.466 24.47 37.459 47.666 37.459 23.198 0 42.614-15.994 47.666-37.459 8.896.941 16.539-5.961 16.539-14.714 0-8.191-6.75-14.96-15.246-14.787z" fill="#f9cfcf"/><path d="m132.736 62.263h-76.812c-16.365 0-29.631-13.266-29.631-29.631-.001-16.366 13.266-29.632 29.631-29.632h50.278c14.654 0 26.534 11.88 26.534 26.534z" fill="#4671c6"/><path d="m100.308 97.061c-3.565 0-6.455-2.89-6.455-6.455v-6.885c0-3.565 2.89-6.455 6.455-6.455 3.565 0 6.455 2.89 6.455 6.455v6.885c0 3.565-2.89 6.455-6.455 6.455z" fill="#3762cc"/><path d="m50.148 97.061c-3.565 0-6.455-2.89-6.455-6.455v-6.885c0-3.565 2.89-6.455 6.455-6.455 3.565 0 6.455 2.89 6.455 6.455v6.885c-.001 3.565-2.891 6.455-6.455 6.455z" fill="#3762cc"/><g fill="#3762cc"><path d="m86.956 111.753c.583-.588.58-1.538-.008-2.121-.588-.586-1.538-.578-2.122.008-1.34 1.352-3.158 2.403-5.256 3.042-1.26.383-2.681.569-4.342.569-1.662 0-3.082-.187-4.342-.569-2.099-.639-3.916-1.69-5.256-3.042-.583-.586-1.533-.592-2.121-.009-.588.584-.592 1.533-.009 2.122 1.688 1.702 3.94 3.016 6.513 3.798 1.547.472 3.253.7 5.215.7 1.961 0 3.667-.229 5.215-.7 2.572-.782 4.824-2.096 6.513-3.798z"/><path d="m143.508 167.036c0-14.634-11.905-26.539-26.54-26.539h-15.227v-7.166c10.93-6.567 19.223-17.152 22.712-30.072h.054c4.192 0 8.264-1.54 11.39-4.353 3.532-3.179 5.559-7.716 5.559-12.446 0-4.528-1.789-8.775-5.038-11.958-.604-.592-1.251-1.123-1.924-1.612.146-1.712.24-3.424.24-5.102v-5.525-32.729c0-15.733-12.8-28.534-28.534-28.534h-50.276c-16.282 0-29.726 12.368-31.442 28.201-5.331 2.843-8.714 8.414-8.714 14.51v24.077c0 1.678.094 3.389.241 5.101-.673.489-1.32 1.02-1.925 1.612-3.249 3.184-5.038 7.431-5.038 11.959 0 4.73 2.026 9.268 5.56 12.447 3.125 2.813 7.196 4.352 11.389 4.352h.054c3.484 12.902 11.758 23.474 22.665 30.043v7.195h-15.18c-14.634 0-26.539 11.905-26.539 26.539v53.726c0 1.104.896 2 2 2h132.512c1.104 0 2-.896 2-2 .001-10.049.001-43.726.001-53.726zm-17.297-97.285c0-2.788.018-3.744-.081-5.488h4.605c0 3.722.02 4.64-.084 6.539-1.331-.511-3.027-.915-4.44-1.051zm-97.839-39.107v-.001c1.024-14.311 12.986-25.643 27.552-25.643h50.278c13.528 0 24.534 11.006 24.534 24.534v30.729h-6.767-68.045c-6.338 0-12.809-2.245-18.003-6.696-.037-.032-.073-.063-.11-.095-6.53-5.658-10.067-14.06-9.439-22.828zm-8.604 13.067c0-3.778 1.719-7.29 4.559-9.62.001.023.004.045.005.068.233 4.872 1.619 9.585 3.827 13.624-3.301 7.895-3.866 14.368-3.866 21.969-1.48.143-3.161.56-4.441 1.05-.055-1.012-.084-2.019-.084-3.013zm9.764 57.006c-.214-.911-1.027-1.542-1.945-1.542-.07 0-.141.004-.211.011-3.687.393-7.364-.795-10.094-3.252-2.692-2.422-4.236-5.875-4.236-9.474 0-3.444 1.363-6.677 3.837-9.102 2.294-2.248 5.662-3.746 9.369-3.685 1.214-.009 2.041-.943 2.041-2v-4.583c0-5.477.922-10.428 2.576-15.165 6.201 8.012 15.553 12.337 25.055 12.337h66.19c.123 2.006.097 2.171.097 7.411 0 1.061.837 1.998 2.041 2 3.553-.085 6.974 1.339 9.369 3.685 2.475 2.425 3.837 5.657 3.837 9.102 0 3.599-1.543 7.052-4.234 9.473-2.73 2.457-6.412 3.645-10.094 3.253-1.005-.09-1.926.551-2.157 1.531-4.978 21.146-23.778 35.916-45.72 35.916s-40.743-14.77-45.721-35.916zm-2.572 118.045h-15.964v-18.93h15.964zm112.548 0h-17.261v-18.93h17.261zm0-22.931h-17.261v-14.201c0-1.104-.896-2-2-2s-2 .896-2 2v37.132h-87.287c0-20.161 0-27.969 0-37.132 0-1.104-.896-2-2-2s-2 .896-2 2v14.201h-15.964v-28.795c0-12.428 10.111-22.539 22.539-22.539h17.18c1.104 0 2-.896 2-2v-7.018c6.824 3.316 14.485 5.154 22.537 5.154 8.033 0 15.678-1.828 22.49-5.13v6.994c0 1.104.896 2 2 2h17.227c12.428 0 22.54 10.111 22.54 22.539v28.795z"/></g><g><path d="m239.309 253h-99.554c-4.25 0-7.696-3.446-7.696-7.696v-126.203c0-4.25 3.446-7.696 7.696-7.696h99.554c4.25 0 7.696 3.446 7.696 7.696v126.203c0 4.25-3.446 7.696-7.696 7.696z" fill="#f9a7a7"/><path d="m142.244 238.301v-112.197c0-2.125 1.723-3.848 3.848-3.848h86.88c2.125 0 3.848 1.723 3.848 3.848v112.196c0 2.125-1.723 3.848-3.848 3.848h-86.88c-2.125.001-3.848-1.722-3.848-3.847z" fill="#e0ebfc"/><path d="m218.712 106.458h-14.751v-6.095c0-4.25-3.446-7.696-7.696-7.696h-13.468c-4.25 0-7.696 3.446-7.696 7.696v6.095h-14.751c-2.125 0-3.848 1.723-3.848 3.848v15.282c0 2.125 1.723 3.848 3.848 3.848h58.361c2.125 0 3.848-1.723 3.848-3.848v-15.282c.001-2.125-1.721-3.848-3.847-3.848zm-34.311-3.309c0-2.834 2.297-5.131 5.131-5.131s5.131 2.297 5.131 5.131c0 1.262-.457 2.415-1.213 3.309-.99 1.171-2.449 1.822-3.918 1.822-1.46 0-2.926-.649-3.918-1.822-.756-.893-1.213-2.047-1.213-3.309z" fill="#a4c9ff"/><g><path d="m224.621 200.804h-48.161c-1.736 0-3.143-1.407-3.143-3.143s1.407-3.143 3.143-3.143h48.161c1.736 0 3.143 1.407 3.143 3.143s-1.407 3.143-3.143 3.143z" fill="#4671c6"/></g><path d="m167.363 205.075h-11.524c-.771 0-1.397-.625-1.397-1.397v-11.524c0-.771.625-1.397 1.397-1.397h11.524c.771 0 1.397.625 1.397 1.397v11.524c0 .772-.625 1.397-1.397 1.397z" fill="#6bdddd"/><g><path d="m159.906 203.623c-.044 0-.087-.002-.131-.005-.534-.038-1.025-.306-1.347-.734l-4.617-6.16c-.611-.816-.446-1.974.37-2.585.816-.612 1.973-.446 2.586.37l3.339 4.455 9.728-9.728c.72-.721 1.891-.721 2.611 0 .721.721.721 1.891 0 2.612l-11.234 11.234c-.347.348-.817.541-1.305.541z" fill="#4671c6"/></g><g><path d="m224.621 177.046h-48.161c-1.736 0-3.143-1.407-3.143-3.143s1.407-3.143 3.143-3.143h48.161c1.736 0 3.143 1.407 3.143 3.143s-1.407 3.143-3.143 3.143z" fill="#4671c6"/></g><path d="m167.363 181.317h-11.524c-.771 0-1.397-.625-1.397-1.397v-11.524c0-.771.625-1.397 1.397-1.397h11.524c.771 0 1.397.625 1.397 1.397v11.524c0 .772-.625 1.397-1.397 1.397z" fill="#6bdddd"/><g><path d="m159.906 179.865c-.044 0-.087-.002-.131-.005-.534-.038-1.025-.306-1.347-.734l-4.617-6.16c-.611-.816-.446-1.974.37-2.585.816-.612 1.973-.446 2.586.37l3.339 4.455 9.728-9.728c.72-.721 1.891-.721 2.611 0 .721.721.721 1.891 0 2.612l-11.234 11.234c-.347.348-.817.541-1.305.541z" fill="#4671c6"/></g><g><path d="m224.621 153.288h-48.161c-1.736 0-3.143-1.407-3.143-3.143s1.407-3.143 3.143-3.143h48.161c1.736 0 3.143 1.407 3.143 3.143s-1.407 3.143-3.143 3.143z" fill="#4671c6"/></g><path d="m167.363 157.559h-11.524c-.771 0-1.397-.625-1.397-1.397v-11.524c0-.771.625-1.397 1.397-1.397h11.524c.771 0 1.397.625 1.397 1.397v11.524c0 .772-.625 1.397-1.397 1.397z" fill="#6bdddd"/><g><path d="m159.906 156.107c-.044 0-.087-.002-.131-.005-.534-.038-1.025-.306-1.347-.734l-4.617-6.16c-.611-.816-.446-1.974.37-2.585.816-.612 1.973-.446 2.586.37l3.339 4.455 9.728-9.728c.72-.721 1.891-.721 2.611 0 .721.721.721 1.891 0 2.612l-11.234 11.234c-.347.348-.817.541-1.305.541z" fill="#4671c6"/></g><g><path d="m224.621 224.562h-48.161c-1.736 0-3.143-1.407-3.143-3.143s1.407-3.143 3.143-3.143h48.161c1.736 0 3.143 1.407 3.143 3.143s-1.407 3.143-3.143 3.143z" fill="#4671c6"/></g><path d="m167.363 228.833h-11.524c-.771 0-1.397-.625-1.397-1.397v-11.524c0-.771.625-1.397 1.397-1.397h11.524c.771 0 1.397.625 1.397 1.397v11.524c0 .772-.625 1.397-1.397 1.397z" fill="#6bdddd"/><g><path d="m159.906 227.381c-.044 0-.087-.002-.131-.005-.534-.038-1.025-.306-1.347-.734l-4.617-6.16c-.611-.816-.446-1.974.37-2.585.816-.612 1.973-.446 2.586.37l3.339 4.455 9.728-9.728c.72-.721 1.891-.721 2.611 0 .721.721.721 1.891 0 2.612l-11.234 11.234c-.347.348-.817.541-1.305.541z" fill="#4671c6"/></g></g><g fill="#3762cc"><path d="m189.531 110.28c3.893 0 7.131-3.166 7.131-7.131 0-3.932-3.199-7.131-7.131-7.131s-7.13 3.199-7.13 7.131c0 3.999 3.279 7.131 7.13 7.131zm0-10.261c1.727 0 3.131 1.404 3.131 3.131 0 1.951-1.738 3.304-3.456 3.112-1.784-.275-2.805-1.638-2.805-3.112 0-1.727 1.405-3.131 3.13-3.131z"/><path d="m239.309 109.405h-14.825c-.436-2.797-2.854-4.947-5.772-4.947h-12.75v-4.095c0-5.347-4.35-9.696-9.696-9.696h-13.468c-5.347 0-9.696 4.35-9.696 9.696v4.095h-12.75c-2.917 0-5.336 2.15-5.772 4.947h-14.825c-5.347 0-9.696 4.35-9.696 9.696v126.202c0 5.347 4.35 9.696 9.696 9.696h99.554c5.347 0 9.696-4.35 9.696-9.696v-126.201c0-5.347-4.35-9.697-9.696-9.697zm-80.806.902c0-1.02.829-1.849 1.849-1.849h14.75c1.104 0 2-.896 2-2v-6.095c0-3.141 2.556-5.696 5.696-5.696h13.468c3.141 0 5.696 2.556 5.696 5.696v6.095c0 1.104.896 2 2 2h14.75c1.02 0 1.849.829 1.849 1.849v15.282c0 1.019-.829 1.848-1.849 1.848h-58.36c-1.02 0-1.849-.829-1.849-1.848 0-3.051 0-12.212 0-15.282zm1.849 21.13h58.36c3.225 0 5.849-2.623 5.849-5.848v-1.333h8.411c1.019 0 1.848.829 1.848 1.849v112.196c0 1.019-.829 1.848-1.848 1.848h-86.88c-1.019 0-1.848-.829-1.848-1.848v-112.197c0-1.02.829-1.849 1.848-1.849h8.411v1.333c0 3.225 2.624 5.849 5.849 5.849zm84.653 113.867c0 3.141-2.556 5.696-5.696 5.696h-99.554c-3.141 0-5.696-2.556-5.696-5.696v-126.202c0-3.141 2.556-5.696 5.696-5.696h14.748v6.851h-8.411c-3.225 0-5.848 2.624-5.848 5.849v112.196c0 3.225 2.623 5.848 5.848 5.848h86.88c3.225 0 5.848-2.623 5.848-5.848v-112.198c0-3.225-2.623-5.849-5.848-5.849h-8.411v-6.851h14.748c3.141 0 5.696 2.556 5.696 5.696z"/></g><path d="m104.072 180.335c-1.847 0-3.344-1.497-3.344-3.344v-5.785c0-1.231-.998-2.229-2.229-2.229h-46.54c-1.231 0-2.229.998-2.229 2.229v5.785c0 1.847-1.497 3.344-3.344 3.344h-5.899c-1.231 0-2.229.998-2.229 2.229v26.418c0 8.934 2.777 17.648 7.946 24.935 4.759 6.709 11.339 11.915 18.962 15.004l10.062 4.079 10.064-4.078c7.623-3.089 14.203-8.296 18.962-15.004 5.17-7.287 7.946-16 7.946-24.935v-26.418c0-1.231-.998-2.229-2.229-2.229h-5.899z" fill="#6bdddd"/><path d="m68.808 238.897c-5.628-2.281-10.461-6.105-13.976-11.059-3.831-5.4-5.856-11.755-5.856-18.378v-18.76h.292c5.532 0 10.033-4.501 10.033-10.033v-.19h31.854v.19c0 5.532 4.5 10.033 10.033 10.033h.292v18.76c0 6.622-2.025 12.977-5.856 18.378-3.514 4.954-8.347 8.778-13.976 11.059l-6.419 2.601z" fill="#e0ebfc"/><path d="m91.468 204.677h-10.534v-10.534c0-1.108-.898-2.007-2.007-2.007h-7.399c-1.108 0-2.007.898-2.007 2.007v10.534h-10.533c-1.108 0-2.007.898-2.007 2.007v7.399c0 1.108.898 2.007 2.007 2.007h10.534v10.534c0 1.108.898 2.007 2.007 2.007h7.399c1.108 0 2.007-.898 2.007-2.007v-10.534h10.534c1.108 0 2.007-.898 2.007-2.007v-7.399c-.001-1.108-.9-2.007-2.008-2.007z" fill="#f9a7a7"/><g fill="#3762cc"><path d="m109.971 178.335h-5.899c-.741 0-1.344-.603-1.344-1.344v-5.785c0-2.332-1.897-4.229-4.229-4.229h-46.541c-2.332 0-4.229 1.897-4.229 4.229v5.785c0 .741-.603 1.344-1.344 1.344h-5.898c-2.332 0-4.229 1.897-4.229 4.229v26.418c0 9.402 2.875 18.425 8.315 26.092 4.989 7.032 11.85 12.462 19.843 15.701l10.063 4.078c.241.098.496.146.751.146s.51-.049.751-.146l10.064-4.078c7.992-3.239 14.853-8.669 19.842-15.701 5.44-7.668 8.315-16.69 8.315-26.092v-26.418c-.002-2.332-1.899-4.229-4.231-4.229zm.229 30.647c0 8.567-2.621 16.79-7.578 23.777-4.546 6.409-10.799 11.356-18.082 14.309l-9.313 3.773-9.312-3.773c-7.284-2.952-13.536-7.899-18.083-14.309-4.958-6.987-7.578-15.209-7.578-23.777v-26.418c0-.127.103-.229.229-.229h5.898c2.947 0 5.344-2.397 5.344-5.344v-5.785c0-.127.103-.229.229-.229h46.541c.126 0 .229.103.229.229v5.785c0 2.946 2.397 5.344 5.344 5.344h5.899c.126 0 .229.103.229.229v26.418z"/><path d="m101.48 188.701h-.292c-4.429 0-8.033-3.604-8.033-8.033v-.19c0-1.104-.896-2-2-2h-31.854c-1.104 0-2 .896-2 2v.19c0 4.43-3.604 8.033-8.033 8.033h-.292c-1.104 0-2 .896-2 2v18.76c0 7.039 2.153 13.794 6.225 19.534 3.735 5.266 8.872 9.331 14.855 11.756l6.42 2.602c.241.098.496.146.751.146s.51-.049.751-.146l6.418-2.602c5.984-2.425 11.121-6.49 14.857-11.756 4.072-5.741 6.225-12.496 6.225-19.534v-18.76c.002-1.104-.894-2-1.998-2zm-2 20.76c0 6.204-1.897 12.159-5.488 17.22-3.293 4.642-7.822 8.226-13.097 10.363l-5.667 2.297-5.669-2.297c-5.275-2.138-9.803-5.722-13.096-10.363-3.59-5.06-5.488-11.015-5.488-17.22v-16.881c5.237-.747 9.398-4.879 10.189-10.103h28.125c.791 5.224 4.952 9.355 10.189 10.103v16.881z"/></g></g></svg>